<?xml version="1.0" encoding="iso-8859-1"?>
<!-- Generator: Adobe Illustrator 21.0.0, SVG Export Plug-In . SVG Version: 6.00 Build 0)  -->
<svg xmlns="http://www.w3.org/2000/svg" xmlns:xlink="http://www.w3.org/1999/xlink" version="1.1" id="Capa_1" x="0px" y="0px" viewBox="0 0 512 512" style="enable-background:new 0 0 512 512;" xml:space="preserve" width="512" height="512">
<g>
	<path style="fill:#E1E4F9;" d="M120.471,495.991v-75H45.176c-24.911,0-45.176-20.187-45.176-45v-270c0-24.813,20.266-45,45.176-45   h421.647c24.911,0,45.176,20.187,45.176,45v270c0,24.813-20.266,45-45.176,45H275.619l-131.736,87.481   C133.889,515.107,120.471,507.951,120.471,495.991z"/>
	<path style="fill:#E1E4F9;" d="M466.824,60.991H256v373.028l19.619-13.028h191.205c24.911,0,45.176-20.187,45.176-45v-270   C512,81.178,491.734,60.991,466.824,60.991z"/>
	<path style="fill:#0b5ac2;" d="M245.352,236.598c-7.191-7.107-30.161-25.606-49.587-25.606h-20.078   c-63.66,0-115.451-51.589-115.451-115v-80c0-8.284,6.742-15,15.059-15h120.471c24.444,0,47.299,14.774,60.235,25.048   c12.937-10.273,35.792-25.048,60.236-25.048h120.47c8.317,0,15.059,6.716,15.059,15v80c0,63.411-51.791,115-115.451,115h-20.077   c-19.493,0-42.919,18.963-49.588,25.607C260.771,242.451,251.236,242.46,245.352,236.598z"/>
	<path style="fill:#0b5ac2;" d="M436.706,0.991h-120.47c-24.444,0-47.299,14.774-60.236,25.048v214.952   c3.853,0,7.708-1.465,10.648-4.393c6.67-6.644,30.095-25.607,49.588-25.607h20.077c63.66,0,115.451-51.589,115.451-115v-80   C451.765,7.707,445.023,0.991,436.706,0.991z"/>
	<path style="fill:#E1E4F9;" d="M180.706,136.991c-33.776,0-60.235-31-60.235-31s26.459-31,60.235-31s60.235,31,60.235,31   S214.482,136.991,180.706,136.991z"/>
	<path style="fill:#D6DAF6;" d="M331.294,136.991c-33.776,0-60.235-31-60.235-31s26.459-31,60.235-31s60.235,31,60.235,31   S365.071,136.991,331.294,136.991z"/>
	<path style="fill:#78777F;" d="M195.765,300.991h-90.353c-8.317,0-15.059-6.716-15.059-15s6.742-15,15.059-15h90.353   c8.317,0,15.059,6.716,15.059,15S204.081,300.991,195.765,300.991z"/>
	<path style="fill:#78777F;" d="M286.118,300.991H256c-8.317,0-15.059-6.716-15.059-15s6.742-15,15.059-15h30.118   c8.317,0,15.059,6.716,15.059,15S294.434,300.991,286.118,300.991z"/>
	<path style="fill:#464550;" d="M406.588,300.991h-60.235c-8.317,0-15.059-6.716-15.059-15s6.742-15,15.059-15h60.235   c8.317,0,15.059,6.716,15.059,15S414.905,300.991,406.588,300.991z"/>
	<path style="fill:#78777F;" d="M165.647,360.991h-60.235c-8.317,0-15.059-6.716-15.059-15s6.742-15,15.059-15h60.235   c8.317,0,15.059,6.716,15.059,15S173.964,360.991,165.647,360.991z"/>
	<path style="fill:#78777F;" d="M316.235,360.991h-90.353c-8.317,0-15.059-6.716-15.059-15s6.742-15,15.059-15h90.353   c8.317,0,15.059,6.716,15.059,15S324.552,360.991,316.235,360.991z"/>
	<path style="fill:#464550;" d="M286.118,270.991H256v30h30.118c8.317,0,15.059-6.716,15.059-15S294.434,270.991,286.118,270.991z"/>
	<path style="fill:#78777F;" d="M240.941,285.991c0,8.284,6.742,15,15.059,15v-30C247.683,270.991,240.941,277.707,240.941,285.991z   "/>
	<path style="fill:#78777F;" d="M225.882,330.991c-8.317,0-15.059,6.716-15.059,15s6.742,15,15.059,15H256v-30H225.882z"/>
	<path style="fill:#464550;" d="M316.235,330.991H256v30h60.235c8.317,0,15.059-6.716,15.059-15S324.552,330.991,316.235,330.991z"/>
</g>















</svg>
